<svg width="17" height="24" viewBox="0 0 17 24" fill="none" xmlns="http://www.w3.org/2000/svg">
<path d="M8.89693 20.8281C7.03882 20.8938 5.19921 20.4837 3.6041 19.648C2.92206 19.2547 2.35 18.7322 1.93032 18.1194C1.51064 17.5065 1.25409 16.8189 1.17969 16.1076L4.20445 15.978C4.41546 16.8282 5.00277 17.5709 5.8381 18.0438C6.75977 18.522 7.81877 18.7594 8.88992 18.7281C9.57738 18.7332 10.2598 18.625 10.9014 18.4092C11.4792 18.217 11.995 17.9053 12.4048 17.5007C12.7772 17.1286 12.9793 16.6493 12.972 16.155C12.9905 15.8401 12.9315 15.5255 12.7991 15.2323C12.6666 14.9391 12.4638 14.6742 12.2043 14.4553C11.5289 13.9699 10.7261 13.6388 9.8681 13.4916L6.54668 12.76C5.25344 12.5266 4.05247 12.0017 3.06289 11.2373C2.63008 10.8622 2.29134 10.4125 2.06823 9.91668C1.84512 9.42089 1.74254 8.88992 1.767 8.35757C1.73515 7.41441 2.05141 6.48733 2.66902 5.71347C3.32507 4.934 4.21224 4.32599 5.23475 3.95512C6.41282 3.51249 7.685 3.2936 8.96709 3.31293C10.1954 3.28396 11.4136 3.51479 12.518 3.98578C13.4584 4.38994 14.2553 5.01019 14.8232 5.78006C15.3664 6.50355 15.6658 7.34605 15.6871 8.21126L12.7576 8.31727C12.6503 7.50357 12.2372 6.74399 11.5829 6.15766C10.8626 5.61476 9.92576 5.34324 8.97711 5.40245C8.44834 5.39953 7.9215 5.45846 7.41061 5.57768C6.94339 5.68459 6.50042 5.86028 6.10068 6.09721C5.7314 6.31827 5.42323 6.6086 5.19867 6.94704C4.97704 7.29706 4.86535 7.69213 4.87494 8.09211C4.8616 8.35293 4.91671 8.61295 5.03606 8.85228C5.1554 9.0916 5.33582 9.30388 5.56348 9.47286C6.33352 9.93317 7.19417 10.2652 8.10215 10.4524L11.3294 11.2198C12.7436 11.4693 14.0192 12.1309 14.9474 13.0965C15.6827 13.9709 16.0671 15.0331 16.0409 16.1182C16.0576 16.9989 15.7448 17.8603 15.1499 18.5713C14.5019 19.3159 13.6334 19.8915 12.6383 20.2359C11.449 20.6487 10.1773 20.8495 8.89793 20.8264L8.89693 20.8281ZM7.67019 1H10.29V4.05675H7.67019V1ZM7.53489 19.9433H10.1407V23H7.53489V19.9433Z" fill="#FF5C02" stroke="#FF5C02"/>
</svg>
