<svg width="26" height="26" viewBox="0 0 26 26" fill="none" xmlns="http://www.w3.org/2000/svg">
<path d="M25.5283 7.66837L14.8283 0.901371C14.2943 0.564512 13.6757 0.385742 13.0443 0.385742C12.4129 0.385742 11.7944 0.564512 11.2603 0.901371L0.512325 7.66837C0.286891 7.81026 0.127056 8.03589 0.0679824 8.29563C0.00890846 8.55537 0.0554346 8.82794 0.197325 9.05337C0.339216 9.2788 0.564849 9.43864 0.824587 9.49771C1.08432 9.55679 1.35689 9.51026 1.58233 9.36837L2.13033 9.03437V22.2694C2.13033 23.1563 2.48264 24.0068 3.10976 24.6339C3.73688 25.2611 4.58744 25.6134 5.47433 25.6134H6.57433V18.2914C6.57433 17.4045 6.92664 16.5539 7.55376 15.9268C8.18088 15.2997 9.03144 14.9474 9.91833 14.9474H16.1243C17.0112 14.9474 17.8618 15.2997 18.4889 15.9268C19.116 16.5539 19.4683 17.4045 19.4683 18.2914V25.6134H20.6223C21.5092 25.6134 22.3598 25.2611 22.9869 24.6339C23.614 24.0068 23.9663 23.1563 23.9663 22.2694V9.05237L24.4583 9.36337C24.6838 9.50566 24.9565 9.55257 25.2165 9.49378C25.3453 9.46466 25.467 9.41048 25.5748 9.33431C25.6826 9.25815 25.7744 9.16149 25.8448 9.04987C25.9153 8.93825 25.9631 8.81384 25.9854 8.68375C26.0078 8.55366 26.0043 8.42044 25.9752 8.29169C25.9461 8.16295 25.8919 8.04119 25.8158 7.93338C25.7396 7.82558 25.6429 7.73383 25.5313 7.66337L25.5283 7.66837ZM13.0203 12.2824C12.2688 12.2824 11.5341 12.0595 10.9092 11.642C10.2843 11.2244 9.7972 10.6309 9.50958 9.93657C9.22197 9.24221 9.14672 8.47816 9.29334 7.74103C9.43996 7.0039 9.80188 6.32681 10.3333 5.79537C10.8648 5.26393 11.5419 4.90201 12.279 4.75539C13.0161 4.60876 13.7802 4.68402 14.4745 4.97163C15.1689 5.25924 15.7624 5.7463 16.1799 6.37121C16.5975 6.99611 16.8203 7.7308 16.8203 8.48237C16.8203 9.49019 16.42 10.4567 15.7073 11.1694C14.9947 11.882 14.0281 12.2824 13.0203 12.2824Z" fill="#FF5C02"/>
<path d="M8.58008 18.3672V23.8372L8.81108 23.6062L11.3111 21.1062L8.58008 18.3672Z" fill="#FF5C02"/>
<path d="M15.465 16.9531H10.002L12.732 19.6851L15.465 16.9531Z" fill="#FF5C02"/>
<path d="M14.1504 21.1033L16.6504 23.6033L17.3964 24.3623C17.4191 24.3832 17.4392 24.4067 17.4564 24.4323V18.2913C17.4574 18.1457 17.4337 18.001 17.3864 17.8633L14.1504 21.1033Z" fill="#FF5C02"/>
<path d="M9.64062 25.6135H15.8266L12.7336 22.5205L9.64062 25.6135Z" fill="#FF5C02"/>
<path d="M13.0186 10.2764C14.0083 10.2764 14.8106 9.47408 14.8106 8.48438C14.8106 7.49469 14.0083 6.69238 13.0186 6.69238C12.0289 6.69238 11.2266 7.49469 11.2266 8.48438C11.2266 9.47408 12.0289 10.2764 13.0186 10.2764Z" fill="#FF5C02"/>
</svg>
