<svg width="27" height="26" viewBox="0 0 27 26" fill="none" xmlns="http://www.w3.org/2000/svg">
<path d="M26.3486 7.66837L15.6486 0.901371C15.1146 0.564512 14.4961 0.385742 13.8646 0.385742C13.2332 0.385742 12.6147 0.564512 12.0806 0.901371L1.33264 7.66837C1.1072 7.81026 0.947369 8.03589 0.888295 8.29563C0.829221 8.55537 0.875747 8.82794 1.01764 9.05337C1.15953 9.2788 1.38516 9.43864 1.6449 9.49771C1.90464 9.55679 2.1772 9.51026 2.40264 9.36837L2.95064 9.03437V22.2694C2.95064 23.1563 3.30295 24.0068 3.93007 24.6339C4.55719 25.2611 5.40775 25.6134 6.29464 25.6134H7.39464V18.2914C7.39464 17.4045 7.74695 16.5539 8.37407 15.9268C9.00119 15.2997 9.85175 14.9474 10.7386 14.9474H16.9446C17.8315 14.9474 18.6821 15.2997 19.3092 15.9268C19.9363 16.5539 20.2886 17.4045 20.2886 18.2914V25.6134H21.4426C22.3295 25.6134 23.1801 25.2611 23.8072 24.6339C24.4343 24.0068 24.7866 23.1563 24.7866 22.2694V9.05237L25.2786 9.36337C25.5041 9.50566 25.7768 9.55257 26.0368 9.49378C26.1656 9.46466 26.2873 9.41048 26.3951 9.33431C26.5029 9.25815 26.5947 9.16149 26.6651 9.04987C26.7356 8.93825 26.7834 8.81384 26.8057 8.68375C26.8281 8.55366 26.8247 8.42044 26.7955 8.29169C26.7664 8.16295 26.7122 8.04119 26.6361 7.93338C26.5599 7.82558 26.4633 7.73383 26.3516 7.66337L26.3486 7.66837ZM13.8406 12.2824C13.0891 12.2824 12.3544 12.0595 11.7295 11.642C11.1046 11.2244 10.6175 10.6309 10.3299 9.93657C10.0423 9.24221 9.96703 8.47816 10.1137 7.74103C10.2603 7.0039 10.6222 6.32681 11.1536 5.79537C11.6851 5.26393 12.3622 4.90201 13.0993 4.75539C13.8364 4.60876 14.6005 4.68402 15.2948 4.97163C15.9892 5.25924 16.5827 5.7463 17.0002 6.37121C17.4178 6.99611 17.6406 7.7308 17.6406 8.48237C17.6406 9.49019 17.2403 10.4567 16.5276 11.1694C15.815 11.882 14.8485 12.2824 13.8406 12.2824Z" fill="#CECECE"/>
<path d="M9.40039 18.3672V23.8372L9.63139 23.6062L12.1314 21.1062L9.40039 18.3672Z" fill="#CECECE"/>
<path d="M16.2853 16.9531H10.8223L13.5523 19.6851L16.2853 16.9531Z" fill="#CECECE"/>
<path d="M14.9707 21.1033L17.4707 23.6033L18.2167 24.3623C18.2394 24.3832 18.2595 24.4067 18.2767 24.4323V18.2913C18.2777 18.1457 18.254 18.001 18.2067 17.8633L14.9707 21.1033Z" fill="#CECECE"/>
<path d="M10.4609 25.6135H16.6469L13.5539 22.5205L10.4609 25.6135Z" fill="#CECECE"/>
<path d="M13.8389 10.2764C14.8286 10.2764 15.6309 9.47408 15.6309 8.48438C15.6309 7.49469 14.8286 6.69238 13.8389 6.69238C12.8492 6.69238 12.0469 7.49469 12.0469 8.48438C12.0469 9.47408 12.8492 10.2764 13.8389 10.2764Z" fill="#CECECE"/>
</svg>
