<svg width="17" height="24" viewBox="0 0 17 24" fill="none" xmlns="http://www.w3.org/2000/svg">
<path d="M8.71724 20.8281C6.85913 20.8938 5.01952 20.4837 3.42442 19.648C2.74237 19.2547 2.17032 18.7322 1.75064 18.1194C1.33096 17.5065 1.07441 16.8189 1 16.1076L4.02476 15.978C4.23578 16.8282 4.82308 17.5709 5.65841 18.0438C6.58008 18.522 7.63909 18.7594 8.71023 18.7281C9.39769 18.7332 10.0801 18.625 10.7217 18.4092C11.2995 18.217 11.8153 17.9053 12.2251 17.5007C12.5975 17.1286 12.7996 16.6493 12.7923 16.155C12.8108 15.8401 12.7518 15.5255 12.6194 15.2323C12.4869 14.9391 12.2841 14.6742 12.0246 14.4553C11.3492 13.9699 10.5464 13.6388 9.68841 13.4916L6.36699 12.76C5.07375 12.5266 3.87279 12.0017 2.88321 11.2373C2.45039 10.8622 2.11165 10.4125 1.88854 9.91668C1.66543 9.42089 1.56285 8.88992 1.58731 8.35757C1.55546 7.41441 1.87173 6.48733 2.48933 5.71347C3.14538 4.934 4.03256 4.32599 5.05506 3.95512C6.23313 3.51249 7.50531 3.2936 8.7874 3.31293C10.0158 3.28396 11.234 3.51479 12.3383 3.98578C13.2787 4.38994 14.0756 5.01019 14.6435 5.78006C15.1867 6.50355 15.4861 7.34605 15.5074 8.21126L12.5779 8.31727C12.4707 7.50357 12.0575 6.74399 11.4032 6.15766C10.683 5.61476 9.74607 5.34324 8.79742 5.40245C8.26865 5.39953 7.74181 5.45846 7.23092 5.57768C6.7637 5.68459 6.32073 5.86028 5.921 6.09721C5.55171 6.31827 5.24355 6.6086 5.01898 6.94704C4.79735 7.29706 4.68566 7.69213 4.69526 8.09211C4.68191 8.35293 4.73703 8.61295 4.85637 8.85228C4.97571 9.0916 5.15613 9.30388 5.3838 9.47286C6.15384 9.93317 7.01449 10.2652 7.92247 10.4524L11.1497 11.2198C12.5639 11.4693 13.8395 12.1309 14.7678 13.0965C15.503 13.9709 15.8874 15.0331 15.8612 16.1182C15.878 16.9989 15.5651 17.8603 14.9702 18.5713C14.3222 19.3159 13.4537 19.8915 12.4586 20.2359C11.2693 20.6487 9.9976 20.8495 8.71825 20.8264L8.71724 20.8281ZM7.4905 1H10.1104V4.05675H7.4905V1ZM7.3552 19.9433H9.96102V23H7.3552V19.9433Z" fill="#CECECE" stroke="#CECECE"/>
</svg>
